# xmcd
#
# Track frame offsets:
# 150
# 15452
# 27825
# 39967
# 56622
# 66967
# 83887
# 97535
# 108857
# 119487
# 130412
# 141950
# 153615
# 166175
# 177065
# 188330
# 197700
# 207420
# 219865
# 232950
#
# Disc length: 3237 seconds
#
#
# Revision: 2
# Processed by: cddbd v1.5.2PL0 Copyright (c) Steve Scherf et al.
# Submitted via: FreeRIP 2.945 
#
DISCID=000ca314
DTITLE=Various Artist - Country Gold CD 1
DYEAR=1994
DGENRE=Country
TTITLE0=Billie Jo Spears - Blanket On The Ground
TTITLE1=Johnny Cash - I Walk The Line
TTITLE2=Merle Haggard - Okie From Muskogee
TTITLE3=J.J. Barrie - No Charge
TTITLE4=George Hamilton IV - Abiline
TTITLE5=Lynn Anderson - Blue Bayou
TTITLE6=Bobby Bare - Miller's Cave
TTITLE7=Don Gibson - Sea Of Heartbreak
TTITLE8=Waylon Jennings - Burning Memories
TTITLE9=Hank Locklin - Send Me The Pillow That You Dream On
TTITLE10=Jeannie C. Riley - Before The Next Teardrop Falls
TTITLE11=Henson Cargill - Skip A Rope
TTITLE12=Leroy Van Dyke - Auctioneer
TTITLE13=Loretta Lynn - Spring Fever (Live)
TTITLE14=Patsy Cline - I've Loved And Lost Again
TTITLE15=George Jones - The Race Is On
TTITLE16=Ned Miller - From A Jack To A King
TTITLE17=Bobby Bare - 500 Miles Away From Home
TTITLE18=Ray Stevens - Misty
TTITLE19=Glen Campell - Gentle On My Mind (Live)
EXTD=
EXTT0=
EXTT1=
EXTT2=
EXTT3=
EXTT4=
EXTT5=
EXTT6=
EXTT7=
EXTT8=
EXTT9=
EXTT10=
EXTT11=
EXTT12=
EXTT13=
EXTT14=
EXTT15=
EXTT16=
EXTT17=
EXTT18=
EXTT19=
PLAYORDER=
